<svg xmlns="http://www.w3.org/2000/svg" xmlns:xlink="http://www.w3.org/1999/xlink" viewBox="0 0 72.133 72.133" fill="#fff" fill-rule="evenodd" stroke="#000" stroke-linecap="round" stroke-linejoin="round"><use xlink:href="#A" x="3.567" y="3.567"/><symbol id="A" overflow="visible"><path d="M56.032 0H8.025C3.553 0 0 3.552 0 7.968v48.007a7.99 7.99 0 0 0 8.032 8.032h48.007c4.408 0 7.968-3.552 7.968-7.968V8.032A7.99 7.99 0 0 0 56.032 0zM40.532 11.734a2.1 2.1 0 0 1 2.14-2.14 2.1 2.1 0 0 1 2.14 2.14v28.519a2.1 2.1 0 0 1-2.14 2.14 2.1 2.1 0 0 1-2.14-2.14zm-10.664-1.07a2.1 2.1 0 0 1 2.14-2.14 2.1 2.1 0 0 1 2.14 2.14v30.923a2.1 2.1 0 0 1-2.14 2.14 2.1 2.1 0 0 1-2.14-2.14zm-10.664 1.07a2.1 2.1 0 0 1 2.14-2.14 2.1 2.1 0 0 1 2.14 2.14v28.519a2.1 2.1 0 0 1-2.14 2.14 2.1 2.1 0 0 1-2.14-2.14zM8.539 16a2.1 2.1 0 0 1 2.14-2.14 2.1 2.1 0 0 1 2.14 2.14v19.203a2.1 2.1 0 0 1-2.14 2.14 2.1 2.1 0 0 1-2.14-2.14zm46.224 32.571c-.357.285-8.246 6.898-22.827 6.898S9.537 48.856 9.109 48.571a2.07 2.07 0 0 1-.214-2.989 2.07 2.07 0 0 1 2.989-.214c.143 0 7.183 5.828 19.973 5.828 12.94 0 19.973-5.828 19.973-5.899.927-.713 2.283-.713 2.996.214a2.14 2.14 0 0 1-.143 3.06zm.713-13.368a2.1 2.1 0 0 1-2.14 2.14 2.1 2.1 0 0 1-2.14-2.14V16a2.1 2.1 0 0 1 2.14-2.14 2.1 2.1 0 0 1 2.14 2.14z" stroke="none" fill="#1f8ded" fill-rule="nonzero"/></symbol></svg>