<svg xmlns="http://www.w3.org/2000/svg" xmlns:xlink="http://www.w3.org/1999/xlink" viewBox="0 0 258.981 65.981" fill="#fff" fill-rule="evenodd" stroke="#000" stroke-linecap="round" stroke-linejoin="round"><use xlink:href="#A" x=".99" y=".99"/><symbol id="A" overflow="visible"><g stroke="none" fill-rule="nonzero"><path d="M55.456 0H7.922C3.547 0 0 3.547 0 7.922v47.534c0 4.375 3.547 7.922 7.922 7.922h47.534c4.375 0 7.922-3.547 7.922-7.922V7.922C63.378 3.547 59.831 0 55.456 0zM40.138 11.62a2.12 2.12 0 0 1 2.113-2.113 2.12 2.12 0 0 1 2.113 2.113v28.223a2.12 2.12 0 0 1-2.113 2.113 2.12 2.12 0 0 1-2.113-2.113V11.62zm-10.562-1.069a2.12 2.12 0 0 1 2.113-2.113 2.12 2.12 0 0 1 2.113 2.113v30.633a2.12 2.12 0 0 1-2.113 2.113 2.12 2.12 0 0 1-2.113-2.113V10.551zM19.013 11.62a2.12 2.12 0 0 1 2.113-2.113 2.11 2.11 0 0 1 2.111 2.113v28.223a2.11 2.11 0 0 1-2.111 2.113 2.12 2.12 0 0 1-2.113-2.113V11.62zM8.451 15.845a2.11 2.11 0 0 1 2.111-2.113 2.12 2.12 0 0 1 2.113 2.113v19.002a2.12 2.12 0 0 1-2.113 2.113 2.11 2.11 0 0 1-2.111-2.113V15.845zM54.19 48.068c-.325.281-8.152 6.847-22.499 6.847S9.519 48.35 9.192 48.068a2.11 2.11 0 0 1-.23-2.979c.761-.887 2.088-.99 2.971-.232.123.103 7.11 5.833 19.756 5.833 12.802 0 19.683-5.771 19.75-5.829a2.11 2.11 0 0 1 2.977.228c.759.885.662 2.218-.224 2.979zm.737-13.222a2.12 2.12 0 0 1-2.113 2.113 2.11 2.11 0 0 1-2.111-2.113V15.845a2.11 2.11 0 0 1 2.111-2.113 2.12 2.12 0 0 1 2.113 2.113v19.002z" fill="#286efa"/><path d="M88.519 40.851a1.9 1.9 0 0 1-1.959 1.927c-1.119 0-1.927-.871-1.927-1.927V22.479a1.9 1.9 0 0 1 1.959-1.927c1.119 0 1.927.872 1.927 1.927v18.374zm25.12-18.372v16.789c0 2.27-1.212 3.565-3.139 3.565h-.154c-1.834 0-2.706-1.058-3.482-2.614l-3.918-7.617-3.482-7.863.093 7.617.032 8.487a1.9 1.9 0 0 1-1.959 1.927c-1.119 0-1.927-.871-1.927-1.927V24.054c0-2.083 1.212-3.565 3.327-3.565h.154c1.981 0 2.767 1.058 3.565 2.614l3.854 7.556 3.296 7.338-.093-7.027-.032-8.487a1.9 1.9 0 0 1 1.959-1.927c1.117-.002 1.925.867 1.925 1.925zm15.577 18.32a1.9 1.9 0 0 1-1.959 1.927c-1.119 0-1.927-.871-1.927-1.927V24.167h-4.819c-.994 0-1.782-.747-1.782-1.834-.011-.481.175-.946.516-1.286s.805-.527 1.287-.516h13.523c.994 0 1.783.747 1.783 1.834.011.481-.175.946-.516 1.287a1.76 1.76 0 0 1-1.286.516h-4.819v16.633zm11.689-.62V22.925c0-1.616.901-2.515 2.549-2.456h11.19c.994 0 1.782.776 1.782 1.834a1.76 1.76 0 0 1-1.802 1.802h-9.887v5.348h8.715c.965 0 1.743.713 1.743 1.743s-.776 1.743-1.743 1.743h-8.715v6.156h9.887c.994 0 1.783.776 1.783 1.834.011.481-.175.946-.516 1.287s-.805.527-1.286.516h-11.244c-1.616.002-2.515-.899-2.456-2.547zm37.619.049c.529.901.186 2.052-.901 2.614-1.058.529-2.208.125-2.733-.776l-4.322-7.99h-4.104l.032 6.777a1.9 1.9 0 0 1-1.959 1.927c-1.119 0-1.927-.872-1.927-1.927V22.947c0-1.616.901-2.515 2.549-2.456h7.368c5.07 0 7.182 3.296 7.182 6.655 0 3.203-1.866 5.546-5.07 6.187l3.886 6.9zm-12.082-9.669h6.156c2.084 0 3.169-1.337 3.169-3.234s-1.149-3.203-3.203-3.203h-6.124v6.437zM187.706 41.1c-2.331-2.084-3.367-5.348-3.367-9.451 0-4.135 1.026-7.368 3.327-9.42 1.43-1.244 3.357-2.084 6.156-2.084 2.456 0 4.353.561 5.783 1.773 1.244.994 2.145 2.377 2.674 4.353.277 1.026-.436 2.052-1.616 2.27-1.119.186-2.02-.529-2.363-1.555-.372-.994-.871-1.709-1.462-2.208-.808-.713-1.782-1.026-3.109-1.026-1.398 0-2.614.404-3.514 1.307-1.307 1.307-1.866 3.638-1.866 6.591 0 2.923.529 5.254 1.897 6.56.901.901 2.084 1.307 3.45 1.307 1.43 0 2.515-.372 3.42-1.212a4.87 4.87 0 0 0 1.149-1.648c.404-.965 1.244-1.68 2.331-1.43s1.773 1.307 1.43 2.331c-.561 1.709-1.525 3.078-2.828 4.011-1.43 1.026-3.203 1.555-5.441 1.555-2.86 0-4.664-.84-6.033-2.02zm18.954-9.451c0-6.964 2.86-11.503 9.606-11.503 6.685 0 9.576 4.417 9.576 11.503 0 7.182-2.923 11.503-9.576 11.503-6.777 0-9.606-4.322-9.606-11.503zm15.203 0c0-5.288-1.927-7.863-5.625-7.863-3.638 0-5.546 2.581-5.546 7.863s1.866 7.863 5.546 7.863c3.668 0 5.625-2.581 5.625-7.863zM256 40.819a1.9 1.9 0 0 1-1.959 1.927c-1.119 0-1.927-.871-1.927-1.927v-8.332l.093-8.114-2.706 8.239-2.733 8.114c-.465 1.43-1.43 1.99-2.642 1.99-1.275 0-2.208-.59-2.705-2.02l-2.798-8.081-2.581-8.114.093 7.99v8.332a1.9 1.9 0 0 1-1.959 1.927c-1.119 0-1.927-.871-1.927-1.927V24.19c0-2.301 1.244-3.638 3.421-3.638 2.052 0 3.202 1.089 3.854 3.078l2.86 8.487 1.743 5.783 1.773-5.783 2.86-8.487c.654-1.99 1.773-3.078 3.823-3.078 2.179 0 3.367 1.307 3.367 3.638l.032 16.631z" fill="#000"/></g></symbol></svg>